<?xml version="1.0" standalone="no"?>
<!DOCTYPE svg PUBLIC "-//W3C//DTD SVG 20010904//EN"
 "http://www.w3.org/TR/2001/REC-SVG-20010904/DTD/svg10.dtd">
<svg version="1.0" xmlns="http://www.w3.org/2000/svg"
 width="500.000000pt" height="500.000000pt" viewBox="0 0 500.000000 500.000000"
 preserveAspectRatio="xMidYMid meet">

<g transform="translate(0.000000,500.000000) scale(0.100000,-0.100000)"
fill="#ea3f2d" stroke="none">
<path d="M115 4951 c-11 -5 -29 -19 -40 -31 -20 -22 -20 -36 -20 -2416 l0
-2394 28 -27 27 -28 2385 0 2385 0 27 28 28 27 0 2395 0 2395 -28 27 -27 28
-2373 2 c-1304 1 -2381 -2 -2392 -6z m2434 -111 c193 -75 318 -201 381 -386
26 -75 25 -126 -2 -169 -43 -66 -131 -90 -238 -64 -64 16 -300 13 -400 -5
-247 -45 -412 -108 -595 -230 -107 -70 -252 -213 -318 -312 -123 -185 -207
-417 -232 -641 -7 -57 -6 -61 11 -58 205 46 246 57 409 111 258 85 447 164
730 306 88 44 165 83 170 88 6 4 46 27 90 50 114 62 147 81 170 96 11 8 39 14
62 14 41 0 47 -4 145 -106 232 -240 329 -323 550 -472 88 -59 257 -150 336
-181 l52 -21 0 68 c0 78 -37 265 -74 375 -103 308 -351 609 -611 743 -83 43
-113 68 -131 111 -33 76 -5 145 86 214 207 157 466 167 642 26 62 -50 72 -109
28 -167 -16 -21 -27 -25 -72 -25 -42 0 -62 7 -98 31 -90 61 -181 67 -289 18
l-54 -24 89 -59 c413 -273 665 -734 700 -1279 l7 -113 37 -37 c127 -126 189
-320 145 -453 -14 -40 -34 -69 -79 -115 -66 -66 -141 -107 -265 -146 -53 -16
-78 -30 -90 -48 -8 -14 -18 -27 -22 -30 -3 -3 -10 -12 -15 -21 -23 -41 -86
-113 -194 -219 l-116 -115 47 -49 c112 -117 146 -230 86 -282 -15 -13 -40 -26
-55 -29 -54 -11 -117 -51 -138 -90 -12 -21 -29 -76 -38 -124 -21 -114 -64
-199 -138 -273 -71 -69 -188 -129 -288 -148 -118 -22 -160 -57 -160 -133 0
-42 5 -54 33 -82 73 -73 236 -67 402 15 162 80 305 250 364 433 7 21 24 51 38
67 21 25 32 30 69 30 56 0 90 -22 104 -66 10 -30 8 -44 -16 -107 -61 -163
-125 -268 -229 -373 -180 -184 -430 -283 -643 -254 -90 12 -125 23 -183 61
-82 52 -129 124 -149 226 -33 167 76 320 269 379 25 7 56 14 68 14 32 0 122
42 161 74 50 43 80 103 93 186 21 135 74 235 154 290 50 34 49 44 -6 88 l-28
23 -83 -45 c-188 -102 -382 -159 -624 -184 -140 -14 -177 -14 -285 -3 -140 15
-218 31 -328 67 -80 27 -234 99 -288 134 l-32 21 -33 -30 -33 -29 62 -57 c76
-69 118 -149 138 -263 17 -98 41 -148 91 -192 42 -36 132 -80 167 -80 12 0 43
-7 68 -14 193 -59 292 -198 268 -375 -39 -284 -393 -385 -740 -211 -204 102
-363 283 -455 517 -39 100 -40 114 -17 154 50 84 163 66 194 -30 6 -20 34 -81
62 -136 42 -83 65 -114 136 -185 53 -52 110 -98 148 -118 176 -93 353 -104
431 -26 27 27 32 39 32 81 0 55 -19 83 -72 106 -41 18 -110 37 -133 37 -10 0
-55 18 -100 39 -158 77 -256 208 -285 381 -20 125 -72 186 -172 204 -48 9 -88
55 -88 103 0 39 45 132 87 178 14 17 35 40 45 52 l20 21 -88 84 c-90 86 -225
248 -276 330 -27 43 -33 48 -86 58 -79 16 -175 64 -223 111 -46 45 -84 122
-101 203 -26 121 40 276 150 354 36 26 52 71 52 152 0 74 16 202 41 325 119
587 506 1006 1079 1170 209 60 476 89 615 65 28 -4 51 -6 53 -5 8 8 -31 67
-71 106 -57 57 -127 95 -223 119 -96 25 -119 39 -134 85 -15 44 -1 85 39 116
23 18 34 20 90 15 35 -4 98 -20 140 -36z"/>
<path d="M2670 3354 c-47 -26 -114 -63 -150 -83 -64 -37 -254 -130 -340 -169
-25 -11 -66 -29 -91 -40 -25 -12 -70 -31 -100 -42 -30 -12 -67 -27 -84 -35
-16 -7 -56 -22 -87 -34 -32 -11 -82 -30 -110 -41 -29 -10 -83 -28 -120 -40
-38 -11 -96 -28 -130 -39 -60 -18 -209 -53 -292 -69 -22 -4 -43 -14 -47 -22
-4 -8 -17 -36 -29 -62 -11 -25 -39 -64 -62 -85 -23 -21 -51 -48 -64 -59 -32
-30 -47 -94 -34 -143 21 -78 75 -115 187 -127 94 -10 110 -23 193 -152 93
-146 297 -356 430 -444 268 -178 520 -244 825 -219 294 25 545 122 779 299 66
51 259 259 311 335 69 103 89 119 168 136 104 23 197 68 240 116 22 25 17 94
-12 159 -27 62 -102 136 -138 136 -24 0 -85 19 -158 49 -100 41 -296 146 -396
212 -169 112 -300 219 -457 373 -73 72 -136 132 -140 133 -4 1 -45 -18 -92
-43z m-464 -538 c28 -28 34 -42 34 -75 0 -76 -49 -131 -115 -131 -53 0 -112
46 -121 97 -9 47 3 82 38 115 25 23 39 28 80 28 44 0 54 -4 84 -34z m770 0
c29 -29 34 -41 34 -80 0 -102 -93 -157 -177 -106 -109 66 -67 220 61 220 41 0
53 -5 82 -34z m-579 -783 c68 -47 143 -48 221 -2 43 25 78 24 122 -2 44 -27
50 -36 50 -80 0 -112 -269 -186 -439 -119 -34 14 -80 40 -102 58 -34 29 -39
39 -39 76 0 42 21 74 60 89 27 11 98 0 127 -20z"/>
</g>
</svg>
