<?xml version="1.0" standalone="no"?>
<!DOCTYPE svg PUBLIC "-//W3C//DTD SVG 20010904//EN"
 "http://www.w3.org/TR/2001/REC-SVG-20010904/DTD/svg10.dtd">
<svg version="1.0" xmlns="http://www.w3.org/2000/svg"
 width="389.000000pt" height="501.000000pt" viewBox="0 0 389.000000 501.000000"
 preserveAspectRatio="xMidYMid meet">

<g transform="translate(0.000000,501.000000) scale(0.100000,-0.100000)"
fill="#ea3f2d" stroke="none">
<path d="M1798 4890 c-14 -10 -31 -33 -38 -49 -10 -26 -10 -35 6 -62 23 -37
51 -53 124 -69 30 -7 65 -19 78 -26 12 -8 22 -12 22 -9 0 14 69 -32 118 -79
51 -48 82 -92 82 -116 0 -7 -36 -9 -119 -4 -255 15 -592 -56 -825 -173 -70
-35 -186 -102 -196 -114 -3 -3 -27 -20 -54 -39 -108 -73 -255 -231 -339 -362
-139 -219 -237 -534 -253 -813 -8 -162 -8 -161 -81 -234 -89 -89 -128 -169
-128 -266 0 -183 123 -322 322 -364 54 -12 62 -17 87 -57 54 -85 184 -240 274
-327 51 -48 92 -94 92 -101 0 -7 -10 -21 -21 -32 -32 -29 -108 -138 -120 -173
-26 -74 14 -131 101 -145 46 -7 104 -54 124 -100 8 -17 21 -69 30 -116 9 -47
28 -109 42 -137 61 -125 197 -227 358 -267 50 -13 103 -28 117 -34 43 -17 69
-59 69 -109 0 -101 -58 -142 -202 -143 -261 0 -489 176 -609 472 -33 79 -52
106 -87 119 -46 18 -122 -36 -122 -86 0 -23 45 -136 83 -210 89 -172 228 -314
392 -399 218 -113 441 -121 592 -21 197 131 196 402 -4 528 -45 29 -116 54
-188 68 -55 10 -137 50 -173 83 -42 38 -70 99 -85 186 -15 91 -47 169 -84 210
-13 14 -23 28 -23 32 0 4 -20 21 -45 39 -25 18 -45 37 -45 43 0 17 53 66 72
66 10 0 55 -20 101 -44 210 -113 452 -176 676 -176 70 0 272 22 331 35 94 22
125 31 205 57 50 17 142 57 206 89 64 33 120 59 125 59 13 0 84 -73 83 -85 0
-6 -21 -26 -47 -46 -26 -19 -60 -54 -76 -77 -33 -48 -76 -161 -76 -201 0 -59
-29 -128 -74 -172 -55 -55 -111 -84 -202 -103 -252 -52 -380 -253 -289 -453
63 -142 231 -227 410 -208 323 34 601 257 735 589 42 107 43 108 26 142 -18
39 -63 64 -102 56 -25 -5 -74 -48 -74 -66 0 -6 -15 -46 -34 -88 -36 -83 -98
-179 -155 -241 -167 -182 -489 -263 -607 -152 -31 30 -34 37 -34 93 0 56 2 62
34 89 25 23 59 36 142 57 126 30 194 67 275 147 73 71 116 156 135 267 16 90
29 123 64 160 23 25 82 52 112 52 30 0 88 63 88 96 0 42 -33 102 -100 182 -33
39 -60 77 -60 84 0 7 33 42 73 78 79 70 216 226 257 291 23 37 33 43 115 70
215 68 345 196 345 340 0 109 -61 249 -150 341 l-47 49 -7 112 c-10 180 -38
321 -101 512 -29 89 -134 287 -203 384 -93 131 -245 281 -369 365 -57 38 -103
76 -103 83 0 20 55 49 121 63 78 17 155 2 231 -45 85 -53 144 -43 168 29 20
62 -21 114 -135 168 -177 82 -373 51 -546 -87 -137 -109 -115 -217 61 -305
177 -88 367 -278 494 -495 97 -167 171 -408 183 -597 l6 -98 -28 0 c-32 0
-192 76 -312 148 -168 101 -352 250 -542 439 -203 202 -212 207 -282 160 -19
-13 -42 -26 -51 -30 -10 -3 -62 -32 -115 -63 -152 -88 -521 -265 -703 -337
-266 -105 -541 -189 -668 -204 l-55 -6 7 64 c35 313 171 614 365 809 107 108
198 172 336 240 168 82 294 121 485 150 72 12 313 8 441 -6 69 -7 129 19 159
69 26 42 25 87 -5 172 -66 186 -241 339 -446 389 -85 21 -111 20 -141 -4z
m531 -1527 c244 -247 471 -419 727 -553 116 -61 294 -130 333 -130 22 0 41
-12 75 -47 57 -58 86 -116 93 -186 5 -49 3 -56 -26 -89 -36 -41 -114 -78 -225
-107 -44 -12 -88 -29 -99 -38 -10 -10 -46 -57 -78 -104 -153 -223 -386 -416
-623 -516 -193 -82 -355 -113 -588 -113 -226 0 -361 29 -543 119 -242 119
-477 335 -625 576 -27 44 -59 86 -71 93 -11 7 -56 19 -100 27 -152 27 -189 62
-189 179 l0 69 73 71 c53 52 79 87 97 129 13 31 31 59 39 61 9 2 52 12 96 21
239 50 593 166 812 266 46 21 95 42 103 44 21 5 361 178 470 239 74 42 141 76
149 76 7 0 52 -39 100 -87z"/>
<path d="M2345 2882 c-58 -12 -101 -73 -91 -128 8 -39 68 -94 104 -94 96 0
148 119 82 187 -31 31 -60 42 -95 35z"/>
<path d="M1532 2864 c-28 -19 -52 -65 -52 -100 0 -31 55 -90 94 -100 84 -21
156 87 109 166 -29 49 -105 66 -151 34z"/>
<path d="M1730 2073 c-34 -23 -40 -33 -40 -70 0 -25 9 -39 42 -67 66 -57 137
-80 243 -79 103 0 176 23 238 74 33 27 38 36 35 67 -2 28 -10 41 -37 59 -43
29 -66 29 -133 -2 -76 -36 -147 -34 -213 5 -57 34 -99 38 -135 13z"/>
</g>
</svg>
