<?xml version="1.0" standalone="no"?>
<!DOCTYPE svg PUBLIC "-//W3C//DTD SVG 20010904//EN"
 "http://www.w3.org/TR/2001/REC-SVG-20010904/DTD/svg10.dtd">
<svg version="1.0" xmlns="http://www.w3.org/2000/svg"
 width="1026.000000pt" height="119.000000pt" viewBox="0 0 1026.000000 119.000000"
 preserveAspectRatio="xMidYMid meet">

<g transform="translate(0.000000,119.000000) scale(0.100000,-0.100000)"
fill="#fff" stroke="none">
<path d="M470 1173 c-214 -36 -393 -207 -445 -424 -19 -82 -19 -246 0 -328 34
-143 139 -284 260 -348 93 -49 173 -66 305 -66 191 0 313 46 431 163 112 111
163 245 163 430 0 123 -14 188 -61 289 -63 133 -193 236 -348 276 -55 14 -240
19 -305 8z m211 -83 c205 -39 323 -223 323 -505 0 -239 -76 -390 -233 -464
-50 -23 -68 -26 -166 -26 -98 0 -116 3 -167 27 -31 14 -76 45 -101 67 -186
172 -197 596 -20 792 86 95 222 136 364 109z"/>
<path d="M3172 1160 c-194 -51 -331 -181 -398 -380 -30 -86 -27 -311 4 -402
62 -180 206 -308 400 -355 104 -25 290 -23 443 6 l127 24 12 128 c7 70 9 132
6 138 -4 6 -20 11 -35 11 -25 0 -30 -5 -36 -37 -15 -84 -76 -158 -152 -184
-60 -22 -254 -18 -326 5 -124 41 -217 137 -258 266 -29 90 -36 269 -15 368 24
114 61 185 127 246 70 65 141 94 250 103 195 15 336 -61 369 -198 10 -40 16
-49 33 -49 42 0 44 8 36 147 -4 73 -10 137 -14 142 -3 6 -23 11 -43 11 -20 0
-77 7 -127 15 -128 21 -312 19 -403 -5z"/>
<path d="M5902 1160 c-205 -54 -367 -232 -402 -443 -28 -162 1 -336 75 -463
62 -107 199 -202 335 -235 78 -19 260 -16 339 4 209 56 368 229 406 442 61
341 -101 623 -400 700 -85 22 -260 19 -353 -5z m317 -84 c200 -71 311 -345
256 -632 -46 -243 -188 -363 -415 -352 -110 5 -197 44 -261 116 -201 226 -159
700 75 837 94 55 239 68 345 31z"/>
<path d="M8670 1164 c-265 -56 -440 -286 -440 -579 0 -287 160 -497 428 -562
104 -25 290 -23 444 6 l127 24 7 76 c4 42 8 103 8 136 1 58 0 60 -27 63 -16 2
-29 -2 -31 -10 -47 -162 -114 -216 -278 -226 -331 -19 -515 184 -495 548 9
158 43 253 120 337 84 91 196 129 351 120 158 -10 258 -78 286 -197 10 -41 16
-50 33 -50 43 0 45 8 38 146 -4 72 -11 136 -15 142 -4 7 -24 12 -44 12 -20 0
-77 7 -127 15 -111 18 -298 18 -385 -1z"/>
<path d="M1400 1136 c0 -31 2 -34 41 -40 86 -14 79 33 79 -500 0 -376 -3 -476
-13 -484 -7 -6 -32 -14 -55 -18 -40 -6 -42 -8 -42 -40 l0 -34 165 0 165 0 0
34 c0 32 -2 34 -45 40 -79 12 -75 -12 -75 444 0 232 4 402 9 397 5 -6 163
-210 351 -455 188 -245 348 -451 354 -458 8 -8 27 -10 59 -6 l47 7 0 523 c0
585 -7 534 73 549 34 7 37 10 37 39 l0 32 -170 0 -170 0 0 -32 c0 -31 2 -33
45 -40 91 -13 86 13 83 -418 l-3 -380 -335 435 -334 434 -133 2 -133 3 0 -34z"/>
<path d="M4030 1134 c0 -30 3 -32 44 -38 24 -4 49 -13 55 -20 8 -9 10 -157 9
-492 l-3 -479 -52 -9 c-51 -9 -53 -11 -53 -43 l0 -33 354 0 355 0 6 48 c4 26
13 79 20 117 14 76 8 95 -29 95 -16 0 -28 -16 -53 -68 -17 -37 -42 -74 -55
-82 -17 -11 -62 -16 -170 -18 l-148 -4 0 232 0 232 110 -4 c127 -4 139 -11
147 -82 5 -45 7 -46 39 -46 l34 0 0 170 0 170 -35 0 c-31 0 -35 -3 -35 -25 0
-14 -7 -41 -14 -60 l-15 -35 -115 0 -116 0 0 211 0 211 139 -4 c139 -3 140 -3
171 -33 17 -16 36 -46 42 -67 9 -32 15 -38 39 -38 45 0 45 -4 13 197 l-5 32
-339 -2 -340 -2 0 -31z"/>
<path d="M6880 1136 c0 -31 2 -34 41 -40 86 -14 79 34 79 -506 l0 -479 -37
-10 c-21 -6 -46 -11 -55 -11 -14 0 -18 -8 -18 -35 l0 -35 165 0 165 0 0 34 c0
32 -2 34 -42 40 -82 13 -78 -12 -78 438 0 228 4 398 9 396 5 -1 165 -205 356
-453 191 -247 350 -453 354 -458 4 -4 28 -4 54 -1 l47 7 0 523 c0 585 -7 534
73 549 34 7 37 10 37 39 l0 32 -170 0 -170 0 0 -32 c0 -31 2 -33 45 -40 91
-13 86 13 83 -418 l-3 -379 -334 434 -334 434 -134 2 -133 3 0 -34z"/>
<path d="M9510 1133 c0 -30 2 -31 50 -38 40 -6 51 -11 55 -28 3 -12 4 -233 3
-492 l-3 -470 -52 -9 c-51 -9 -53 -11 -53 -43 l0 -33 355 0 354 0 6 33 c37
225 37 228 -9 226 -16 0 -29 -17 -56 -72 -44 -90 -57 -96 -237 -96 l-133 -1 0
231 0 231 110 -4 c127 -4 139 -11 147 -82 5 -45 7 -46 39 -46 l34 0 0 171 0
170 -32 -3 c-30 -3 -33 -7 -41 -48 -5 -25 -14 -51 -19 -57 -7 -9 -45 -13 -124
-13 l-114 0 0 210 0 210 118 0 c64 0 134 -5 154 -10 38 -11 70 -50 83 -102 6
-22 13 -28 35 -28 16 0 32 4 35 10 5 9 -8 135 -21 197 l-4 22 -340 -2 -340 -2
0 -32z"/>
</g>
</svg>
