<?xml version="1.0" standalone="no"?>
<!DOCTYPE svg PUBLIC "-//W3C//DTD SVG 20010904//EN"
 "http://www.w3.org/TR/2001/REC-SVG-20010904/DTD/svg10.dtd">
<svg version="1.0" xmlns="http://www.w3.org/2000/svg"
 width="1312.000000pt" height="292.000000pt" viewBox="0 0 1312.000000 292.000000"
 preserveAspectRatio="xMidYMid meet">

<g transform="translate(0.000000,292.000000) scale(0.100000,-0.100000)"
fill="#ea3f2d" stroke="none">
<path d="M984 2899 c-38 -49 -20 -83 53 -104 75 -22 136 -57 168 -99 39 -52
34 -59 -37 -51 -150 16 -386 -36 -548 -121 -295 -155 -461 -439 -483 -827 -4
-66 -6 -70 -50 -115 -54 -55 -77 -104 -77 -166 0 -109 77 -194 201 -220 18 -4
46 -33 92 -94 36 -48 91 -112 122 -141 30 -29 55 -57 55 -63 0 -6 -14 -26 -31
-45 -74 -85 -74 -143 0 -163 56 -15 86 -56 106 -142 9 -40 26 -88 37 -106 32
-52 112 -110 176 -128 124 -34 142 -46 142 -99 0 -74 -69 -104 -184 -80 -130
27 -226 108 -290 242 -21 43 -41 85 -45 93 -12 22 -60 24 -82 4 -28 -25 -24
-48 27 -152 61 -126 138 -204 260 -263 138 -67 260 -66 353 2 78 56 102 156
58 240 -27 52 -107 105 -172 114 -95 15 -157 75 -169 166 -9 67 -36 120 -86
166 -37 35 -38 39 -23 55 22 24 34 23 103 -12 186 -94 369 -121 576 -85 96 17
229 62 297 101 23 13 49 24 58 24 15 0 67 -47 58 -53 -2 -2 -18 -13 -35 -25
-39 -27 -82 -107 -90 -168 -4 -27 -14 -62 -23 -77 -22 -39 -92 -83 -145 -91
-24 -4 -67 -21 -96 -39 -91 -55 -123 -150 -81 -242 59 -131 236 -163 413 -77
99 48 145 85 200 159 44 61 108 190 108 221 0 26 -31 52 -62 52 -30 0 -39 -10
-62 -68 -24 -62 -79 -145 -127 -191 -77 -75 -222 -125 -295 -101 -59 19 -74
37 -74 86 0 53 16 65 110 89 145 37 218 113 249 260 15 71 48 111 103 125 21
6 43 20 49 31 15 30 -11 96 -56 139 -19 19 -35 37 -35 42 0 4 37 45 83 92 45
46 93 102 107 125 21 34 35 44 88 62 78 26 149 73 180 119 21 31 23 44 20 106
-5 79 -31 135 -87 188 -26 25 -31 37 -31 75 0 125 -50 332 -107 446 -68 135
-212 297 -323 366 -28 17 -50 34 -50 39 0 4 16 15 36 25 50 24 139 17 182 -14
42 -30 83 -25 100 12 19 40 -4 72 -76 105 -85 40 -175 38 -262 -5 -113 -55
-154 -120 -110 -176 12 -14 49 -42 84 -62 216 -121 381 -388 403 -657 7 -77 1
-82 -65 -51 -156 71 -320 193 -482 357 -64 65 -102 96 -117 96 -13 0 -63 -22
-112 -49 -303 -169 -570 -280 -803 -336 l-98 -23 0 42 c0 61 45 216 86 300 49
99 123 195 192 251 60 47 182 115 254 141 128 46 354 68 438 44 68 -19 133 22
133 85 0 52 -57 158 -110 204 -84 75 -241 127 -269 90z m353 -956 c182 -178
369 -306 545 -373 29 -11 62 -20 74 -20 41 0 114 -103 114 -161 0 -32 -52 -74
-117 -93 -94 -28 -99 -31 -156 -108 -106 -143 -238 -252 -374 -308 -133 -56
-212 -71 -364 -69 -118 1 -146 4 -221 28 -177 57 -367 207 -474 373 -49 78
-74 98 -120 98 -112 0 -160 120 -76 190 19 16 47 50 61 76 25 46 29 49 86 60
228 44 594 190 850 337 44 26 83 47 87 47 3 0 42 -35 85 -77z"/>
<path d="M820 1650 c-29 -29 -26 -74 7 -99 30 -24 58 -20 86 11 35 42 6 108
-48 108 -14 0 -34 -9 -45 -20z"/>
<path d="M1290 1650 c-29 -29 -26 -74 6 -99 15 -12 32 -21 39 -21 7 0 24 9 39
21 48 38 22 119 -39 119 -14 0 -34 -9 -45 -20z"/>
<path d="M935 1164 c-25 -26 -14 -56 34 -88 34 -23 58 -30 112 -34 60 -4 75
-1 123 22 69 34 80 60 41 94 -15 13 -35 21 -44 18 -9 -3 -37 -12 -63 -22 -46
-16 -49 -15 -91 5 -52 25 -90 27 -112 5z"/>
<path d="M3330 2163 c-214 -36 -393 -207 -445 -424 -19 -82 -19 -246 0 -328
34 -143 139 -284 260 -348 93 -49 173 -66 305 -66 191 0 313 46 431 163 71 70
125 168 150 270 17 71 17 249 0 320 -49 203 -196 354 -396 405 -55 14 -240 19
-305 8z m211 -83 c205 -39 323 -223 323 -505 0 -239 -76 -390 -233 -464 -50
-23 -68 -26 -166 -26 -98 0 -116 3 -167 27 -31 14 -76 45 -101 67 -186 172
-197 596 -20 792 86 95 222 136 364 109z"/>
<path d="M6032 2150 c-194 -51 -331 -181 -398 -380 -30 -86 -27 -311 4 -402
62 -180 206 -308 400 -355 104 -25 290 -23 443 6 l127 24 12 128 c7 70 9 132
6 138 -4 6 -20 11 -35 11 -25 0 -30 -5 -36 -37 -15 -84 -76 -158 -152 -184
-60 -22 -254 -18 -326 5 -124 41 -217 137 -258 266 -29 90 -36 269 -15 368 24
114 61 185 127 246 70 65 141 94 250 103 195 15 336 -61 369 -198 10 -40 16
-49 33 -49 42 0 44 8 36 147 -4 73 -10 137 -14 142 -3 6 -23 11 -43 11 -20 0
-77 7 -127 15 -128 21 -312 19 -403 -5z"/>
<path d="M8762 2150 c-205 -54 -367 -232 -402 -443 -28 -162 1 -336 75 -463
62 -107 199 -202 335 -235 78 -19 260 -16 339 4 209 56 368 229 406 442 61
341 -101 623 -400 700 -85 22 -260 19 -353 -5z m317 -84 c200 -71 311 -345
256 -632 -46 -243 -188 -363 -415 -352 -110 5 -197 44 -261 116 -201 226 -159
700 75 837 94 55 239 68 345 31z"/>
<path d="M11530 2154 c-265 -56 -440 -286 -440 -579 0 -287 160 -497 428 -562
104 -25 290 -23 444 6 l127 24 7 76 c4 42 8 103 8 136 1 58 0 60 -27 63 -16 2
-29 -2 -31 -10 -47 -162 -114 -216 -278 -226 -331 -19 -515 184 -495 548 9
158 43 253 120 337 84 91 196 129 351 120 158 -10 258 -78 286 -197 10 -41 16
-50 33 -50 43 0 45 8 38 146 -4 72 -11 136 -15 142 -4 7 -24 12 -44 12 -20 0
-77 7 -127 15 -111 18 -298 18 -385 -1z"/>
<path d="M4260 2126 c0 -31 2 -34 41 -40 86 -14 79 33 79 -500 0 -376 -3 -476
-13 -484 -7 -6 -32 -14 -55 -18 -40 -6 -42 -8 -42 -40 l0 -34 165 0 165 0 0
34 c0 32 -2 34 -45 40 -79 12 -75 -12 -75 444 0 232 4 402 9 397 5 -6 163
-210 351 -455 188 -245 348 -451 354 -458 8 -8 27 -10 59 -6 l47 7 0 523 c0
585 -7 534 73 549 34 7 37 10 37 39 l0 32 -170 0 -170 0 0 -32 c0 -31 2 -33
45 -40 91 -13 86 13 83 -418 l-3 -380 -335 435 -334 434 -133 2 -133 3 0 -34z"/>
<path d="M6890 2124 c0 -30 3 -32 44 -38 24 -4 49 -13 55 -20 8 -9 10 -157 9
-492 l-3 -479 -52 -9 c-51 -9 -53 -11 -53 -43 l0 -33 354 0 355 0 6 48 c4 26
13 79 20 117 14 76 8 95 -29 95 -16 0 -28 -16 -53 -68 -17 -37 -42 -74 -55
-82 -17 -11 -62 -16 -170 -18 l-148 -4 0 232 0 232 110 -4 c127 -4 139 -11
147 -82 5 -45 7 -46 39 -46 l34 0 0 170 0 170 -35 0 c-31 0 -35 -3 -35 -25 0
-14 -7 -41 -14 -60 l-15 -35 -115 0 -116 0 0 211 0 211 139 -4 c139 -3 140 -3
171 -33 17 -16 36 -46 42 -67 9 -32 15 -38 39 -38 45 0 45 -4 13 197 l-5 32
-339 -2 -340 -2 0 -31z"/>
<path d="M9740 2126 c0 -31 2 -34 41 -40 86 -14 79 34 79 -506 l0 -479 -37
-10 c-21 -6 -46 -11 -55 -11 -14 0 -18 -8 -18 -35 l0 -35 165 0 165 0 0 34 c0
32 -2 34 -42 40 -82 13 -78 -12 -78 438 0 228 4 398 9 396 5 -1 165 -205 356
-453 191 -247 350 -453 354 -458 4 -4 28 -4 54 -1 l47 7 0 523 c0 585 -7 534
73 549 34 7 37 10 37 39 l0 32 -170 0 -170 0 0 -32 c0 -31 2 -33 45 -40 91
-13 86 13 83 -418 l-3 -379 -334 434 -334 434 -134 2 -133 3 0 -34z"/>
<path d="M12370 2123 c0 -30 2 -31 50 -38 40 -6 51 -11 55 -28 3 -12 4 -233 3
-492 l-3 -470 -52 -9 c-51 -9 -53 -11 -53 -43 l0 -33 355 0 354 0 6 33 c37
225 37 228 -9 226 -16 0 -29 -17 -56 -72 -44 -90 -57 -96 -237 -96 l-133 -1 0
231 0 231 110 -4 c127 -4 139 -11 147 -82 5 -45 7 -46 39 -46 l34 0 0 171 0
170 -32 -3 c-30 -3 -33 -7 -41 -48 -5 -25 -14 -51 -19 -57 -7 -9 -45 -13 -124
-13 l-114 0 0 210 0 210 118 0 c64 0 134 -5 154 -10 38 -11 70 -50 83 -102 6
-22 13 -28 35 -28 16 0 32 4 35 10 5 9 -8 135 -21 197 l-4 22 -340 -2 -340 -2
0 -32z"/>
</g>
</svg>
